<?xml version="1.0" encoding="UTF-8" standalone="no"?>
<!DOCTYPE svg PUBLIC "-//W3C//DTD SVG 1.1//EN" "http://www.w3.org/Graphics/SVG/1.1/DTD/svg11.dtd">
<svg width="100%" height="100%" viewBox="0 0 1200 120" version="1.1" xmlns="http://www.w3.org/2000/svg" xmlns:xlink="http://www.w3.org/1999/xlink" xml:space="preserve" xmlns:serif="http://www.serif.com/" style="fill-rule:evenodd;clip-rule:evenodd;stroke-linejoin:round;stroke-miterlimit:2;">
    <path id="path9" d="M1200,0L0,0L0,60C0,60 66.376,30.364 93.701,30.364C121.399,30.364 166.061,83.047 190.888,83.047C215.716,83.047 270.652,41.508 294.941,41.508C319.552,41.508 366.695,83.116 392.171,83.116C417.647,83.116 450.029,30.423 480.335,30.082C515.706,29.684 542.194,90.146 577.567,90.146C612.94,90.146 638.728,45.414 669.757,43.719C702.353,41.937 731.21,70.855 763.854,70.855C803.722,70.855 834.1,29.17 873.967,29.167C913.835,29.165 969.179,90.664 1002.09,90.664C1035,90.664 1079.56,43.196 1112.38,43.196C1145.21,43.196 1200,68.897 1200,68.897L1200,0Z" style="fill-rule:nonzero;"/>
</svg>
